<?xml version="1.0" standalone="no"?>
<!DOCTYPE svg PUBLIC "-//W3C//DTD SVG 20010904//EN"
 "http://www.w3.org/TR/2001/REC-SVG-20010904/DTD/svg10.dtd">
<svg version="1.0" xmlns="http://www.w3.org/2000/svg"
 width="48.000000pt" height="48.000000pt" viewBox="0 0 48.000000 48.000000"
 preserveAspectRatio="xMidYMid meet">
<metadata>
Created by potrace 1.13, written by Peter Selinger 2001-2015
</metadata>
<g transform="translate(0.000000,48.000000) scale(0.100000,-0.100000)"
fill="#000000" stroke="none">
<path d="M0 240 l0 -240 240 0 240 0 0 240 0 240 -240 0 -240 0 0 -240z m387
158 c28 -27 30 -69 3 -93 -20 -18 -21 -18 -60 20 -45 44 -47 51 -23 77 22 24
52 23 80 -4z m-65 -79 l40 -41 -108 -109 c-104 -105 -110 -109 -151 -109 l-43
0 0 43 c0 40 6 48 102 150 56 59 106 107 111 107 5 0 27 -19 49 -41z"/>
</g>
</svg>
