<?xml version="1.0" standalone="no"?>
<!DOCTYPE svg PUBLIC "-//W3C//DTD SVG 20010904//EN"
 "http://www.w3.org/TR/2001/REC-SVG-20010904/DTD/svg10.dtd">
<svg version="1.0" xmlns="http://www.w3.org/2000/svg"
 width="48.000000pt" height="48.000000pt" viewBox="0 0 48.000000 48.000000"
 preserveAspectRatio="xMidYMid meet">
<metadata>
Created by potrace 1.13, written by Peter Selinger 2001-2015
</metadata>
<g transform="translate(0.000000,48.000000) scale(0.100000,-0.100000)"
fill="#000000" stroke="none">
<path d="M0 240 l0 -240 240 0 240 0 0 240 0 240 -240 0 -240 0 0 -240z m310
135 c7 -8 28 -15 46 -15 l34 0 0 -120 0 -120 -150 0 -150 0 0 120 0 120 34 0
c18 0 39 7 46 15 8 10 31 15 70 15 39 0 62 -5 70 -15z"/>
<path d="M192 288 c-16 -16 -16 -80 0 -96 16 -16 80 -16 96 0 16 16 16 80 0
96 -16 16 -80 16 -96 0z m86 -10 c15 -15 15 -61 0 -76 -15 -15 -61 -15 -76 0
-15 15 -15 61 0 76 15 15 61 15 76 0z"/>
</g>
</svg>
