<?xml version="1.0" standalone="no"?>
<!DOCTYPE svg PUBLIC "-//W3C//DTD SVG 20010904//EN"
 "http://www.w3.org/TR/2001/REC-SVG-20010904/DTD/svg10.dtd">
<svg version="1.0" xmlns="http://www.w3.org/2000/svg"
 width="48.000000pt" height="48.000000pt" viewBox="0 0 48.000000 48.000000"
 preserveAspectRatio="xMidYMid meet">
<metadata>
Created by potrace 1.13, written by Peter Selinger 2001-2015
</metadata>
<g transform="translate(0.000000,48.000000) scale(0.100000,-0.100000)"
fill="#000000" stroke="none">
<path d="M0 240 l0 -240 240 0 240 0 0 240 0 240 -240 0 -240 0 0 -240z m380
75 c0 -13 -22 -15 -140 -15 -118 0 -140 2 -140 15 0 13 22 15 140 15 118 0
140 -2 140 -15z m0 -75 c0 -19 -7 -20 -140 -20 -133 0 -140 1 -140 20 0 19 7
20 140 20 133 0 140 -1 140 -20z m0 -75 c0 -13 -22 -15 -140 -15 -118 0 -140
2 -140 15 0 13 22 15 140 15 118 0 140 -2 140 -15z"/>
</g>
</svg>
