<?xml version="1.0" standalone="no"?>
<!DOCTYPE svg PUBLIC "-//W3C//DTD SVG 20010904//EN"
 "http://www.w3.org/TR/2001/REC-SVG-20010904/DTD/svg10.dtd">
<svg version="1.0" xmlns="http://www.w3.org/2000/svg"
 width="48.000000pt" height="48.000000pt" viewBox="0 0 48.000000 48.000000"
 preserveAspectRatio="xMidYMid meet">
<metadata>
Created by potrace 1.13, written by Peter Selinger 2001-2015
</metadata>
<g transform="translate(0.000000,48.000000) scale(0.100000,-0.100000)"
fill="#000000" stroke="none">
<path d="M0 240 l0 -240 240 0 240 0 0 240 0 240 -240 0 -240 0 0 -240z m202
73 l38 -37 38 37 c41 40 59 46 69 21 4 -10 -8 -30 -33 -55 l-38 -39 37 -38
c40 -41 46 -59 21 -69 -10 -4 -30 8 -55 33 l-39 38 -39 -38 c-25 -25 -45 -37
-55 -33 -25 10 -19 28 21 69 l37 38 -38 39 c-25 25 -37 45 -33 55 10 25 28 19
69 -21z"/>
</g>
</svg>
