<?xml version="1.0" standalone="no"?>
<!DOCTYPE svg PUBLIC "-//W3C//DTD SVG 20010904//EN"
 "http://www.w3.org/TR/2001/REC-SVG-20010904/DTD/svg10.dtd">
<svg version="1.0" xmlns="http://www.w3.org/2000/svg"
 width="48.000000pt" height="48.000000pt" viewBox="0 0 48.000000 48.000000"
 preserveAspectRatio="xMidYMid meet">
<metadata>
Created by potrace 1.13, written by Peter Selinger 2001-2015
</metadata>
<g transform="translate(0.000000,48.000000) scale(0.100000,-0.100000)"
fill="#000000" stroke="none">
<path d="M0 240 l0 -240 240 0 240 0 0 240 0 240 -240 0 -240 0 0 -240z m324
135 c8 -8 19 -15 25 -15 6 0 11 -5 11 -11 0 -6 7 -17 15 -25 10 -11 15 -36 15
-84 0 -48 -5 -73 -15 -84 -8 -8 -15 -19 -15 -25 0 -6 -5 -11 -11 -11 -6 0 -17
-7 -25 -15 -9 -8 -24 -15 -35 -15 -14 0 -19 7 -19 29 0 16 -3 36 -6 45 -4 10
-1 16 7 16 38 0 77 78 48 95 -6 4 -8 13 -5 21 6 15 -10 29 -18 16 -6 -10 -96
-10 -112 0 -14 9 -24 0 -18 -17 3 -7 1 -16 -5 -20 -28 -17 10 -95 47 -95 22 0
8 -24 -19 -31 -23 -7 -23 -7 -1 -8 17 -1 22 -7 22 -26 0 -29 -29 -34 -54 -10
-8 8 -19 15 -25 15 -6 0 -11 5 -11 11 0 6 -7 17 -15 25 -21 21 -21 147 0 168
8 8 15 19 15 25 0 6 5 11 11 11 6 0 17 7 25 15 11 10 36 15 84 15 48 0 73 -5
84 -15z"/>
</g>
</svg>
