<?xml version="1.0" standalone="no"?>
<!DOCTYPE svg PUBLIC "-//W3C//DTD SVG 20010904//EN"
 "http://www.w3.org/TR/2001/REC-SVG-20010904/DTD/svg10.dtd">
<svg version="1.0" xmlns="http://www.w3.org/2000/svg"
 width="48.000000pt" height="48.000000pt" viewBox="0 0 48.000000 48.000000"
 preserveAspectRatio="xMidYMid meet">
<metadata>
Created by potrace 1.13, written by Peter Selinger 2001-2015
</metadata>
<g transform="translate(0.000000,48.000000) scale(0.100000,-0.100000)"
fill="#000000" stroke="none">
<path d="M0 240 l0 -240 240 0 240 0 0 240 0 240 -240 0 -240 0 0 -240z m307
93 c52 -56 53 -58 53 -119 0 -60 -2 -64 -37 -93 -53 -43 -113 -43 -166 0 -35
29 -37 33 -37 93 0 61 1 63 52 119 29 31 60 57 68 57 8 0 38 -26 67 -57z"/>
<path d="M196 280 c-53 -59 -47 -109 17 -137 l27 -13 0 95 c0 52 -2 95 -4 95
-2 0 -20 -18 -40 -40z"/>
</g>
</svg>
