<?xml version="1.0" standalone="no"?>
<!DOCTYPE svg PUBLIC "-//W3C//DTD SVG 20010904//EN"
 "http://www.w3.org/TR/2001/REC-SVG-20010904/DTD/svg10.dtd">
<svg version="1.0" xmlns="http://www.w3.org/2000/svg"
 width="48.000000pt" height="48.000000pt" viewBox="0 0 48.000000 48.000000"
 preserveAspectRatio="xMidYMid meet">
<metadata>
Created by potrace 1.13, written by Peter Selinger 2001-2015
</metadata>
<g transform="translate(0.000000,48.000000) scale(0.100000,-0.100000)"
fill="#000000" stroke="none">
<path d="M0 240 l0 -240 240 0 240 0 0 240 0 240 -240 0 -240 0 0 -240z m290
105 c0 -38 -3 -45 -20 -45 -16 0 -20 7 -20 30 l0 30 -65 0 -65 0 0 -120 0
-120 65 0 65 0 0 30 c0 23 4 30 20 30 17 0 20 -7 20 -45 l0 -45 -100 0 -100 0
0 150 0 150 100 0 100 0 0 -45z m70 -56 c22 -23 40 -45 40 -49 0 -8 -77 -90
-85 -90 -3 0 -5 14 -5 30 0 29 -1 30 -50 30 -49 0 -50 1 -50 30 0 29 1 30 50
30 49 0 50 1 50 30 0 17 2 30 5 30 3 0 23 -19 45 -41z"/>
</g>
</svg>
